<svg xmlns="http://www.w3.org/2000/svg" viewBox="0 0 120 120" fill="none">
  <!-- Background -->
  <rect width="120" height="120" rx="60" fill="#FCE4EC"/>
  <!-- Face -->
  <circle cx="60" cy="58" r="32" fill="#EDCBB1"/>
  <!-- Hair (long, flowing) -->
  <path d="M26 46C26 26 40 14 60 14C80 14 94 26 94 46V50C94 50 90 38 76 36C66 34 60 40 60 40C60 40 54 34 44 36C30 38 26 50 26 50V46Z" fill="#4A2C2A"/>
  <!-- Side hair -->
  <path d="M26 50V80C26 80 28 70 30 64" fill="#4A2C2A"/>
  <path d="M94 50V80C94 80 92 70 90 64" fill="#4A2C2A"/>
  <!-- Eyes -->
  <ellipse cx="47" cy="55" rx="2.5" ry="3" fill="#1A1A1A"/>
  <ellipse cx="73" cy="55" rx="2.5" ry="3" fill="#1A1A1A"/>
  <!-- Eyelashes -->
  <path d="M42 51C44 49 47 49 50 51" stroke="#1A1A1A" stroke-width="1.5" stroke-linecap="round"/>
  <path d="M78 51C76 49 73 49 70 51" stroke="#1A1A1A" stroke-width="1.5" stroke-linecap="round"/>
  <!-- Happy smile -->
  <path d="M49 66C53 72 67 72 71 66" stroke="#1A1A1A" stroke-width="2" stroke-linecap="round"/>
  <!-- Blush -->
  <circle cx="40" cy="63" r="5" fill="#E8927C" opacity="0.3"/>
  <circle cx="80" cy="63" r="5" fill="#E8927C" opacity="0.3"/>
</svg>