<svg xmlns="http://www.w3.org/2000/svg" viewBox="0 0 120 120" fill="none">
  <!-- Background -->
  <rect width="120" height="120" rx="60" fill="#E8E0D4"/>
  <!-- Face -->
  <circle cx="60" cy="58" r="32" fill="#BA8C63"/>
  <!-- Hair (short, neat) -->
  <path d="M28 48C28 28 42 18 60 18C78 18 92 28 92 48V50C92 50 86 38 60 38C34 38 28 50 28 50V48Z" fill="#1C1C1C"/>
  <!-- Flat top -->
  <rect x="34" y="22" width="52" height="18" rx="8" fill="#1C1C1C"/>
  <!-- Eyes -->
  <ellipse cx="47" cy="56" rx="3" ry="3.5" fill="#1A1A1A"/>
  <ellipse cx="73" cy="56" rx="3" ry="3.5" fill="#1A1A1A"/>
  <!-- Confident eyebrows -->
  <path d="M39 48C42 46 48 46 52 48" stroke="#1C1C1C" stroke-width="2.5" stroke-linecap="round"/>
  <path d="M81 48C78 46 72 46 68 48" stroke="#1C1C1C" stroke-width="2.5" stroke-linecap="round"/>
  <!-- Grin -->
  <path d="M48 66C52 72 68 72 72 66" stroke="#1A1A1A" stroke-width="2" stroke-linecap="round"/>
  <!-- Teeth hint -->
  <path d="M52 68C54 70 66 70 68 68" fill="white" opacity="0.6"/>
</svg>